<?xml version="1.0" encoding="UTF-8" standalone="no"?>
<svg
   xmlns:dc="http://purl.org/dc/elements/1.1/"
   xmlns:cc="http://creativecommons.org/ns#"
   xmlns:rdf="http://www.w3.org/1999/02/22-rdf-syntax-ns#"
   xmlns:svg="http://www.w3.org/2000/svg"
   xmlns="http://www.w3.org/2000/svg"
   viewBox="0 0 666.66669 266.66666"
   height="266.66666"
   width="666.66669"
   xml:space="preserve"
   id="svg1016"
   version="1.1"><metadata
     id="metadata1022"><rdf:RDF><cc:Work
         rdf:about=""><dc:format>image/svg+xml</dc:format><dc:type
           rdf:resource="http://purl.org/dc/dcmitype/StillImage" /><dc:title></dc:title></cc:Work></rdf:RDF></metadata><defs
     id="defs1020"><clipPath
       id="clipPath1036"
       clipPathUnits="userSpaceOnUse"><path
         id="path1034"
         d="M 0,200 H 500 V 0 H 0 Z" /></clipPath></defs><g
     transform="matrix(1.3333333,0,0,-1.3333333,0,266.66667)"
     id="g1024"><g
       transform="translate(461.8232,139.4727)"
       id="g1026"><path
         id="path1028"
         style="fill:#5c31ff;fill-opacity:1;fill-rule:nonzero;stroke:none"
         d="m 0,0 v -21.359 h -3.053 v 12.938 h -0.793 l -5.919,-11.413 h -2.441 l -5.981,11.413 h -0.733 v -12.938 h -3.05 V 0 h 2.685 l 7.872,-15.135 h 0.854 L -2.686,0 Z m -40.096,0 h 15.013 v -2.929 h -5.98 v -18.43 h -3.051 v 18.43 h -5.982 z" /></g><g
       id="g1030"><g
         clip-path="url(#clipPath1036)"
         id="g1032"><g
           transform="translate(67.0889,58.9966)"
           id="g1038"><path
             id="path1040"
             style="fill:#5c31ff;fill-opacity:1;fill-rule:nonzero;stroke:none"
             d="m 0,0 c -17.079,0 -28.912,11.163 -28.912,25.788 h 14.513 c 1.338,-9.712 9.376,-11.945 14.288,-11.945 3.796,0 11.386,1.341 11.386,8.595 0,6.586 -6.362,9.266 -12.726,11.722 -10.494,4.131 -25.34,9.153 -25.34,24.001 0,13.173 11.497,21.21 25.452,21.21 16.187,0 25.229,-10.828 25.229,-20.764 H 9.601 c -0.783,4.354 -5.582,7.144 -11.163,7.144 -5.36,0 -9.825,-2.677 -9.825,-7.59 0,-4.801 4.355,-6.699 11.946,-10.158 C 8.708,44.318 26.121,39.966 26.121,22.328 26.121,7.704 14.178,0 0,0" /></g><g
           transform="translate(114.2988,94.4956)"
           id="g1042"><path
             id="path1044"
             style="fill:#5c31ff;fill-opacity:1;fill-rule:nonzero;stroke:none"
             d="M 0,0 H 25.116 C 23.441,6.587 18.866,9.266 13.284,9.266 7.145,9.266 2.231,5.806 0,0 M 39.852,-11.273 H -0.893 c 1.673,-8.486 8.594,-11.611 14.623,-11.611 7.591,0 10.83,4.689 10.83,4.689 h 14.065 c -4.243,-11.163 -14.401,-17.304 -25.341,-17.304 -15.071,0 -28.242,11.499 -28.242,28.914 0,17.302 13.061,28.019 27.796,28.019 14.288,0 28.801,-9.935 27.014,-32.707" /></g><g
           transform="translate(245.2432,89.8076)"
           id="g1046"><path
             id="path1048"
             style="fill:#5c31ff;fill-opacity:1;fill-rule:nonzero;stroke:none"
             d="m 0,0 v -30.252 h -14.848 v 26.903 c 0,7.703 0.782,17.415 -9.489,16.522 -2.679,-0.223 -10.047,-1.451 -10.047,-17.192 v -26.233 h -14.735 v 26.903 c 0,7.703 0.782,17.415 -9.488,16.522 -2.68,-0.223 -10.047,-1.451 -10.047,-17.192 V -30.252 H -83.39 v 55.816 h 11.386 l 1.675,-6.028 h 1.787 c 2.121,2.79 6.586,6.475 13.507,6.586 6.252,0.112 11.609,-2.791 15.294,-7.702 h 1.675 c 2.79,3.46 7.925,7.702 16.968,7.814 C -6.586,26.345 0,15.517 0,0" /></g><g
           transform="translate(335.9814,89.8076)"
           id="g1050"><path
             id="path1052"
             style="fill:#5c31ff;fill-opacity:1;fill-rule:nonzero;stroke:none"
             d="m 0,0 v -30.252 h -14.848 v 26.903 c 0,7.703 0.783,17.415 -9.488,16.522 -2.68,-0.223 -10.047,-1.451 -10.047,-17.192 v -26.233 h -14.735 v 26.903 c 0,7.703 0.782,17.415 -9.488,16.522 -2.68,-0.223 -10.047,-1.451 -10.047,-17.192 v -26.233 h -14.736 v 55.816 h 11.386 l 1.675,-6.028 h 1.787 c 2.121,2.79 6.586,6.475 13.507,6.586 6.252,0.112 11.609,-2.791 15.294,-7.702 h 1.675 c 2.79,3.46 7.925,7.702 16.967,7.814 C -6.585,26.345 0,15.517 0,0" /></g><path
           id="path1054"
           style="fill:#5c31ff;fill-opacity:1;fill-rule:nonzero;stroke:none"
           d="m 357.083,59.556 h -14.512 v 79.258 h 14.512 z" /><g
           transform="translate(378.6162,94.4956)"
           id="g1056"><path
             id="path1058"
             style="fill:#5c31ff;fill-opacity:1;fill-rule:nonzero;stroke:none"
             d="M 0,0 H 25.116 C 23.442,6.587 18.866,9.266 13.284,9.266 7.145,9.266 2.231,5.806 0,0 M 39.852,-11.273 H -0.894 c 1.674,-8.486 8.596,-11.611 14.624,-11.611 7.591,0 10.83,4.689 10.83,4.689 h 14.065 c -4.243,-11.163 -14.401,-17.304 -25.341,-17.304 -15.07,0 -28.242,11.499 -28.242,28.914 0,17.302 13.061,28.019 27.796,28.019 14.289,0 28.801,-9.935 27.014,-32.707" /></g></g></g></g></svg>